<svg width="20" height="20" viewBox="0 0 20 20" fill="none" xmlns="http://www.w3.org/2000/svg">
<path d="M11.6093 16.5406C11.7614 16.7191 11.9315 16.8821 12.1161 17.0269L9.81536 18.5445C9.78608 18.5449 9.75675 18.543 9.72747 18.5426L7.42962 17.0269C7.61421 16.8822 7.78337 16.7189 7.93548 16.5406L8.36517 16.9664C9.14485 17.7395 10.4019 17.7396 11.1816 16.9664L11.6093 16.5406ZM5.75579 11.0123C7.01653 11.1401 8.00074 12.2052 8.00091 13.4996L7.98724 13.7545C7.85939 15.0152 6.79532 15.9994 5.50091 15.9996L5.24505 15.9859C4.06836 15.8664 3.13292 14.9312 3.0136 13.7545L3.00091 13.4996C3.00109 12.1191 4.12033 10.9996 5.50091 10.9996L5.75579 11.0123ZM14.7558 11.0123C16.0165 11.1401 17.0007 12.2052 17.0009 13.4996C17.0007 14.8801 15.8814 15.9994 14.5009 15.9996L14.245 15.9859C13.0684 15.8664 12.1329 14.9312 12.0136 13.7545L12.0009 13.4996C12.0011 12.1191 13.1203 10.9996 14.5009 10.9996L14.7558 11.0123ZM5.50091 11.9996C4.67262 11.9996 4.00109 12.6713 4.00091 13.4996C4.00107 14.3279 4.67261 14.9996 5.50091 14.9996C6.3291 14.9994 7.00074 14.3278 7.00091 13.4996C7.00073 12.6714 6.32909 11.9998 5.50091 11.9996ZM14.5009 11.9996C13.6726 11.9996 13.0011 12.6713 13.0009 13.4996C13.0011 14.3279 13.6726 14.9996 14.5009 14.9996C15.3291 14.9994 16.0007 14.3278 16.0009 13.4996C16.0007 12.6714 15.3291 11.9998 14.5009 11.9996ZM2.51751 7.4283C2.66225 7.61301 2.82546 7.78296 3.00384 7.93514L2.57903 8.36385C1.80591 9.14343 1.8061 10.4006 2.57903 11.1803L3.00286 11.608C2.82467 11.76 2.66214 11.9303 2.51751 12.1148L0.999932 9.81502C0.999536 9.78528 1.00143 9.75492 1.00189 9.72518L2.51751 7.4283ZM18.5449 9.72811C18.5453 9.75688 18.5453 9.78625 18.5449 9.81502L17.0283 12.1148C16.8836 11.9304 16.7211 11.76 16.5429 11.608L16.9677 11.1803C17.7407 10.4006 17.7408 9.14348 16.9677 8.36385L16.5419 7.93514C16.7204 7.78293 16.8834 7.61306 17.0283 7.4283L18.5449 9.72811ZM5.75579 3.01229C7.01653 3.14011 8.00074 4.20518 8.00091 5.49959L7.98724 5.75448C7.85939 7.0152 6.79532 7.99944 5.50091 7.99959L5.24505 7.98592C4.06836 7.86638 3.13292 6.93124 3.0136 5.75448L3.00091 5.49959C3.00109 4.11905 4.12033 2.99963 5.50091 2.99959L5.75579 3.01229ZM14.7558 3.01229C16.0165 3.14011 17.0007 4.20518 17.0009 5.49959L16.9872 5.75448C16.8594 7.0152 15.7953 7.99944 14.5009 7.99959L14.245 7.98592C13.0684 7.86638 12.1329 6.93124 12.0136 5.75448L12.0009 5.49959C12.0011 4.11905 13.1203 2.99963 14.5009 2.99959L14.7558 3.01229ZM5.50091 3.99959C4.67262 3.99963 4.00109 4.67134 4.00091 5.49959C4.00107 6.32786 4.67261 6.99956 5.50091 6.99959C6.3291 6.99944 7.00074 6.32778 7.00091 5.49959C7.00073 4.67142 6.32909 3.99975 5.50091 3.99959ZM14.5009 3.99959C13.6726 3.99963 13.0011 4.67134 13.0009 5.49959C13.0011 6.32786 13.6726 6.99956 14.5009 6.99959C15.3291 6.99944 16.0007 6.32778 16.0009 5.49959C16.0007 4.67142 15.3291 3.99975 14.5009 3.99959ZM12.1161 2.5162C11.9317 2.66082 11.7613 2.82336 11.6093 3.00155L11.1816 2.57772C10.4019 1.80484 9.14476 1.80476 8.36517 2.57772L7.93646 3.00252C7.78427 2.82415 7.61432 2.66093 7.42962 2.5162L9.72845 0.999594C9.75804 0.999154 9.78772 0.999163 9.81731 0.999594L12.1161 2.5162Z" fill="#CFE8FF"/>
</svg>
